<svg width="128" height="128" viewBox="0 0 128 128" fill="none" xmlns="http://www.w3.org/2000/svg">
<rect width="128" height="128" fill="black"/>
<path d="M11 75.0504V52.6115C11 52.2447 11.2445 52 11.6114 52H21.761C24.1455 52 26.102 52.6115 27.4471 53.8341C28.8535 55.0571 29.526 56.708 29.526 58.7257C29.526 61.966 27.6308 64.4729 24.39 65.2679L31.8494 75.6619H27.3859L20.2326 65.6347H14.6685V75.0504C14.6685 75.4172 14.424 75.6619 14.0571 75.6619H11.5502C11.3057 75.6619 11 75.3563 11 75.0504ZM14.7297 62.3328H21.5165C24.2068 62.3328 25.7963 61.1101 25.7963 58.8477C25.7963 56.708 24.2068 55.4239 21.5165 55.4239H14.7297V62.3328Z" fill="white"/>
<path d="M35.6445 60.9599C37.2372 59.2888 39.2585 58.4224 41.8314 58.4224C43.5465 58.4224 44.9555 58.8558 46.1805 59.784C48.6307 61.5789 49.6722 64.3021 49.6722 67.3967V68.3253H36.9311C37.3599 71.1721 39.81 72.8433 43.1789 72.8433C44.7716 72.8433 46.2418 72.4719 47.6507 71.7911C48.0795 71.6055 48.5082 71.9148 48.5082 72.3481V74.0812C48.5082 74.2667 48.3859 74.5145 48.2631 74.5764C46.7932 75.5664 44.8331 75.9998 42.3825 75.9998C39.81 75.9998 37.6659 75.1953 35.8285 73.5241C34.0519 71.8529 33.1943 69.7487 33.1943 67.1493C33.2556 64.7354 34.0519 62.6311 35.6445 60.9599ZM45.9969 65.5399C45.9354 64.4879 45.5681 63.6213 44.833 62.7549C44.0367 61.9504 42.9953 61.5171 41.6478 61.5171C38.9525 61.5171 37.2372 63.3119 36.9923 65.5399H45.9969Z" fill="white"/>
<path d="M55.5641 62.1294H52.6364C52.2702 62.1294 52.0264 61.884 52.0264 61.5159V59.4904C52.0264 59.1223 52.2702 58.8769 52.6364 58.8769H55.5641V54.6421C55.5641 54.2737 55.8079 54.0283 56.1737 54.0283H58.6135C58.9793 54.0283 59.2235 54.2737 59.2235 54.6421V58.8769H63.8588C64.225 58.8769 64.4688 59.1223 64.4688 59.4904V61.4544C64.4688 61.8228 64.225 62.0682 63.8588 62.0682H59.2235V69.924C59.2235 71.8267 60.0773 72.6244 61.8461 72.6244C62.4561 72.6244 63.0049 72.563 63.5538 72.3791C63.92 72.2563 64.3468 72.563 64.3468 72.9926V74.8338C64.3468 75.0795 64.225 75.2634 63.9808 75.3862C63.1879 75.8158 62.0899 76 60.6264 76C57.5158 76 55.5641 74.2815 55.5641 71.0287V62.1294Z" fill="white"/>
<path d="M69.2726 60.9599C70.8653 59.2888 72.8867 58.4224 75.4595 58.4224C77.1746 58.4224 78.5836 58.8558 79.8087 59.784C82.2588 61.5789 83.3003 64.3021 83.3003 67.3967V68.3253H70.5593C70.988 71.1721 73.4381 72.8433 76.807 72.8433C78.4 72.8433 79.8699 72.4719 81.2789 71.7911C81.7076 71.6055 82.1364 71.9148 82.1364 72.3481V74.0812C82.1364 74.2667 82.014 74.5145 81.8913 74.5764C80.4214 75.5664 78.4612 75.9998 76.0107 75.9998C73.4382 75.9998 71.2941 75.1953 69.4566 73.5241C67.68 71.8529 66.8225 69.7487 66.8225 67.1493C66.8837 64.7354 67.68 62.6311 69.2726 60.9599ZM79.625 65.5399C79.5636 64.4879 79.1963 63.6213 78.4612 62.7549C77.6649 61.9504 76.6234 61.5171 75.276 61.5171C72.5806 61.5171 70.8653 63.3119 70.6205 65.5399H79.625Z" fill="white"/>
<path d="M97.4888 53.8594L93.7029 56.0565L105.136 75.9629L108.923 73.7657L97.4888 53.8594Z" fill="#FF6B06"/>
<path d="M87.0862 53.8594L83.3003 56.0565L94.7339 75.9629L98.5198 73.7657L87.0862 53.8594Z" fill="#FF6B06"/>
<path d="M115.247 75.9998C116.547 75.9998 117.601 74.9404 117.601 73.6337C117.601 72.3268 116.547 71.2675 115.247 71.2675C113.947 71.2675 112.893 72.3268 112.893 73.6337C112.893 74.9404 113.947 75.9998 115.247 75.9998Z" fill="#FF6B06"/>
</svg>
